<mxfile host="app.diagrams.net" agent="Mozilla/5.0 (X11; Ubuntu; Linux x86_64; rv:131.0) Gecko/20100101 Firefox/131.0" version="24.8.2">
  <diagram name="Page-1" id="9QH60iEYrVsY6ZgM2Gov">
    <mxGraphModel dx="782" dy="451" grid="1" gridSize="10" guides="1" tooltips="1" connect="1" arrows="1" fold="1" page="1" pageScale="1" pageWidth="827" pageHeight="1169" math="1" shadow="0">
      <root>
        <mxCell id="0" />
        <mxCell id="1" parent="0" />
        <mxCell id="vCQsMHom-0I6_TzwH5Za-1" value="" style="endArrow=none;html=1;rounded=0;" parent="1" edge="1">
          <mxGeometry width="50" height="50" relative="1" as="geometry">
            <mxPoint x="240" y="330" as="sourcePoint" />
            <mxPoint x="560" y="330" as="targetPoint" />
          </mxGeometry>
        </mxCell>
        <mxCell id="vCQsMHom-0I6_TzwH5Za-2" value="" style="endArrow=none;html=1;rounded=0;" parent="1" edge="1">
          <mxGeometry width="50" height="50" relative="1" as="geometry">
            <mxPoint x="240" y="330" as="sourcePoint" />
            <mxPoint x="240" y="280" as="targetPoint" />
          </mxGeometry>
        </mxCell>
        <mxCell id="vCQsMHom-0I6_TzwH5Za-4" value="&lt;font style=&quot;font-size: 10px;&quot;&gt;\(v_{1}\)&lt;/font&gt;" style="rounded=0;whiteSpace=wrap;html=1;" parent="1" vertex="1">
          <mxGeometry x="240" y="310" width="120" height="20" as="geometry" />
        </mxCell>
        <mxCell id="vCQsMHom-0I6_TzwH5Za-5" value="" style="endArrow=classic;html=1;rounded=0;" parent="1" edge="1">
          <mxGeometry width="50" height="50" relative="1" as="geometry">
            <mxPoint x="560" y="330" as="sourcePoint" />
            <mxPoint x="600" y="330" as="targetPoint" />
          </mxGeometry>
        </mxCell>
        <mxCell id="vCQsMHom-0I6_TzwH5Za-6" value="Time" style="text;html=1;align=center;verticalAlign=middle;resizable=0;points=[];autosize=1;strokeColor=none;fillColor=none;" parent="1" vertex="1">
          <mxGeometry x="590" y="328" width="50" height="30" as="geometry" />
        </mxCell>
        <mxCell id="vCQsMHom-0I6_TzwH5Za-8" value="0" style="text;html=1;align=center;verticalAlign=middle;resizable=0;points=[];autosize=1;strokeColor=none;fillColor=none;" parent="1" vertex="1">
          <mxGeometry x="225" y="328" width="30" height="30" as="geometry" />
        </mxCell>
        <mxCell id="vCQsMHom-0I6_TzwH5Za-9" value="15" style="text;html=1;align=center;verticalAlign=middle;resizable=0;points=[];autosize=1;strokeColor=none;fillColor=none;" parent="1" vertex="1">
          <mxGeometry x="370" y="328" width="40" height="30" as="geometry" />
        </mxCell>
        <mxCell id="vCQsMHom-0I6_TzwH5Za-11" value="12" style="text;html=1;align=center;verticalAlign=middle;resizable=0;points=[];autosize=1;strokeColor=none;fillColor=none;" parent="1" vertex="1">
          <mxGeometry x="340" y="328" width="40" height="30" as="geometry" />
        </mxCell>
        <mxCell id="vCQsMHom-0I6_TzwH5Za-12" value="18" style="text;html=1;align=center;verticalAlign=middle;resizable=0;points=[];autosize=1;strokeColor=none;fillColor=none;" parent="1" vertex="1">
          <mxGeometry x="400" y="328" width="40" height="30" as="geometry" />
        </mxCell>
        <mxCell id="vCQsMHom-0I6_TzwH5Za-13" value="24" style="text;html=1;align=center;verticalAlign=middle;resizable=0;points=[];autosize=1;strokeColor=none;fillColor=none;" parent="1" vertex="1">
          <mxGeometry x="462.5" y="328" width="40" height="30" as="geometry" />
        </mxCell>
        <mxCell id="vCQsMHom-0I6_TzwH5Za-17" value="&lt;font style=&quot;font-size: 10px;&quot;&gt;\(v_{4}\)&lt;/font&gt;" style="rounded=0;whiteSpace=wrap;html=1;" parent="1" vertex="1">
          <mxGeometry x="390" y="290" width="90" height="20" as="geometry" />
        </mxCell>
        <mxCell id="vCQsMHom-0I6_TzwH5Za-18" value="&lt;font style=&quot;font-size: 10px;&quot;&gt;\(v_{3}\)&lt;/font&gt;" style="rounded=0;whiteSpace=wrap;html=1;" parent="1" vertex="1">
          <mxGeometry x="360" y="290" width="30" height="20" as="geometry" />
        </mxCell>
        <mxCell id="vCQsMHom-0I6_TzwH5Za-19" value="&lt;font style=&quot;font-size: 10px;&quot;&gt;\(v_{2}\)&lt;/font&gt;" style="rounded=0;whiteSpace=wrap;html=1;" parent="1" vertex="1">
          <mxGeometry x="360" y="310" width="60" height="20" as="geometry" />
        </mxCell>
        <mxCell id="vCQsMHom-0I6_TzwH5Za-22" value="&lt;font style=&quot;font-size: 10px;&quot;&gt;\(v_{5}\)&lt;/font&gt;" style="rounded=0;whiteSpace=wrap;html=1;" parent="1" vertex="1">
          <mxGeometry x="420" y="310" width="60" height="20" as="geometry" />
        </mxCell>
        <mxCell id="vCQsMHom-0I6_TzwH5Za-24" value="1" style="text;html=1;align=center;verticalAlign=middle;resizable=0;points=[];autosize=1;strokeColor=none;fillColor=none;" parent="1" vertex="1">
          <mxGeometry x="215" y="305" width="30" height="30" as="geometry" />
        </mxCell>
        <mxCell id="vCQsMHom-0I6_TzwH5Za-25" value="2" style="text;html=1;align=center;verticalAlign=middle;resizable=0;points=[];autosize=1;strokeColor=none;fillColor=none;" parent="1" vertex="1">
          <mxGeometry x="215" y="285" width="30" height="30" as="geometry" />
        </mxCell>
        <mxCell id="vCQsMHom-0I6_TzwH5Za-26" value="" style="endArrow=classic;html=1;rounded=0;" parent="1" edge="1">
          <mxGeometry width="50" height="50" relative="1" as="geometry">
            <mxPoint x="240" y="280" as="sourcePoint" />
            <mxPoint x="240" y="270" as="targetPoint" />
          </mxGeometry>
        </mxCell>
        <mxCell id="vCQsMHom-0I6_TzwH5Za-27" value="procs" style="text;html=1;align=center;verticalAlign=middle;resizable=0;points=[];autosize=1;strokeColor=none;fillColor=none;" parent="1" vertex="1">
          <mxGeometry x="215" y="248" width="50" height="30" as="geometry" />
        </mxCell>
        <mxCell id="yaqaLHEnzAnxCAf7iZNI-135" value="32" style="text;html=1;align=center;verticalAlign=middle;resizable=0;points=[];autosize=1;strokeColor=none;fillColor=none;" parent="1" vertex="1">
          <mxGeometry x="540" y="328" width="40" height="30" as="geometry" />
        </mxCell>
        <mxCell id="yaqaLHEnzAnxCAf7iZNI-136" value="ILP schedule" style="text;html=1;align=center;verticalAlign=middle;resizable=0;points=[];autosize=1;strokeColor=none;fillColor=none;" parent="1" vertex="1">
          <mxGeometry x="230" y="229" width="90" height="30" as="geometry" />
        </mxCell>
        <mxCell id="NFo6-rs8NH-0p_eXUnrb-2" value="" style="endArrow=none;html=1;rounded=0;" parent="1" edge="1">
          <mxGeometry width="50" height="50" relative="1" as="geometry">
            <mxPoint x="240" y="461" as="sourcePoint" />
            <mxPoint x="560" y="461" as="targetPoint" />
          </mxGeometry>
        </mxCell>
        <mxCell id="NFo6-rs8NH-0p_eXUnrb-3" value="" style="endArrow=none;html=1;rounded=0;" parent="1" edge="1">
          <mxGeometry width="50" height="50" relative="1" as="geometry">
            <mxPoint x="240" y="461" as="sourcePoint" />
            <mxPoint x="240" y="411" as="targetPoint" />
          </mxGeometry>
        </mxCell>
        <mxCell id="NFo6-rs8NH-0p_eXUnrb-4" value="&lt;font style=&quot;font-size: 10px;&quot;&gt;\(v_{1}\)&lt;/font&gt;" style="rounded=0;whiteSpace=wrap;html=1;" parent="1" vertex="1">
          <mxGeometry x="240" y="441" width="120" height="20" as="geometry" />
        </mxCell>
        <mxCell id="NFo6-rs8NH-0p_eXUnrb-5" value="" style="endArrow=classic;html=1;rounded=0;" parent="1" edge="1">
          <mxGeometry width="50" height="50" relative="1" as="geometry">
            <mxPoint x="560" y="461" as="sourcePoint" />
            <mxPoint x="600" y="461" as="targetPoint" />
          </mxGeometry>
        </mxCell>
        <mxCell id="NFo6-rs8NH-0p_eXUnrb-6" value="Time" style="text;html=1;align=center;verticalAlign=middle;resizable=0;points=[];autosize=1;strokeColor=none;fillColor=none;" parent="1" vertex="1">
          <mxGeometry x="590" y="459" width="50" height="30" as="geometry" />
        </mxCell>
        <mxCell id="NFo6-rs8NH-0p_eXUnrb-7" value="0" style="text;html=1;align=center;verticalAlign=middle;resizable=0;points=[];autosize=1;strokeColor=none;fillColor=none;" parent="1" vertex="1">
          <mxGeometry x="225" y="459" width="30" height="30" as="geometry" />
        </mxCell>
        <mxCell id="NFo6-rs8NH-0p_eXUnrb-8" value="21" style="text;html=1;align=center;verticalAlign=middle;resizable=0;points=[];autosize=1;strokeColor=none;fillColor=none;" parent="1" vertex="1">
          <mxGeometry x="430" y="459" width="40" height="30" as="geometry" />
        </mxCell>
        <mxCell id="NFo6-rs8NH-0p_eXUnrb-9" value="12" style="text;html=1;align=center;verticalAlign=middle;resizable=0;points=[];autosize=1;strokeColor=none;fillColor=none;" parent="1" vertex="1">
          <mxGeometry x="340" y="459" width="40" height="30" as="geometry" />
        </mxCell>
        <mxCell id="NFo6-rs8NH-0p_eXUnrb-10" value="18" style="text;html=1;align=center;verticalAlign=middle;resizable=0;points=[];autosize=1;strokeColor=none;fillColor=none;" parent="1" vertex="1">
          <mxGeometry x="400" y="459" width="40" height="30" as="geometry" />
        </mxCell>
        <mxCell id="NFo6-rs8NH-0p_eXUnrb-11" value="24" style="text;html=1;align=center;verticalAlign=middle;resizable=0;points=[];autosize=1;strokeColor=none;fillColor=none;" parent="1" vertex="1">
          <mxGeometry x="462.5" y="459" width="40" height="30" as="geometry" />
        </mxCell>
        <mxCell id="NFo6-rs8NH-0p_eXUnrb-13" value="&lt;font style=&quot;font-size: 10px;&quot;&gt;\(v_{3}\)&lt;/font&gt;" style="rounded=0;whiteSpace=wrap;html=1;" parent="1" vertex="1">
          <mxGeometry x="450" y="421" width="30" height="20" as="geometry" />
        </mxCell>
        <mxCell id="NFo6-rs8NH-0p_eXUnrb-14" value="&lt;font style=&quot;font-size: 10px;&quot;&gt;\(v_{2}\)&lt;/font&gt;" style="rounded=0;whiteSpace=wrap;html=1;" parent="1" vertex="1">
          <mxGeometry x="360" y="441" width="60" height="20" as="geometry" />
        </mxCell>
        <mxCell id="NFo6-rs8NH-0p_eXUnrb-15" value="&lt;font style=&quot;font-size: 10px;&quot;&gt;\(v_{5}\)&lt;/font&gt;" style="rounded=0;whiteSpace=wrap;html=1;" parent="1" vertex="1">
          <mxGeometry x="420" y="441" width="60" height="20" as="geometry" />
        </mxCell>
        <mxCell id="NFo6-rs8NH-0p_eXUnrb-16" value="1" style="text;html=1;align=center;verticalAlign=middle;resizable=0;points=[];autosize=1;strokeColor=none;fillColor=none;" parent="1" vertex="1">
          <mxGeometry x="215" y="436" width="30" height="30" as="geometry" />
        </mxCell>
        <mxCell id="NFo6-rs8NH-0p_eXUnrb-17" value="2" style="text;html=1;align=center;verticalAlign=middle;resizable=0;points=[];autosize=1;strokeColor=none;fillColor=none;" parent="1" vertex="1">
          <mxGeometry x="215" y="416" width="30" height="30" as="geometry" />
        </mxCell>
        <mxCell id="NFo6-rs8NH-0p_eXUnrb-18" value="" style="endArrow=classic;html=1;rounded=0;" parent="1" edge="1">
          <mxGeometry width="50" height="50" relative="1" as="geometry">
            <mxPoint x="240" y="411" as="sourcePoint" />
            <mxPoint x="240" y="401" as="targetPoint" />
          </mxGeometry>
        </mxCell>
        <mxCell id="NFo6-rs8NH-0p_eXUnrb-19" value="procs" style="text;html=1;align=center;verticalAlign=middle;resizable=0;points=[];autosize=1;strokeColor=none;fillColor=none;" parent="1" vertex="1">
          <mxGeometry x="215" y="379" width="50" height="30" as="geometry" />
        </mxCell>
        <mxCell id="NFo6-rs8NH-0p_eXUnrb-20" value="32" style="text;html=1;align=center;verticalAlign=middle;resizable=0;points=[];autosize=1;strokeColor=none;fillColor=none;" parent="1" vertex="1">
          <mxGeometry x="540" y="459" width="40" height="30" as="geometry" />
        </mxCell>
        <mxCell id="NFo6-rs8NH-0p_eXUnrb-21" value="Other ILP schedule" style="text;html=1;align=center;verticalAlign=middle;resizable=0;points=[];autosize=1;strokeColor=none;fillColor=none;" parent="1" vertex="1">
          <mxGeometry x="210" y="360" width="130" height="30" as="geometry" />
        </mxCell>
        <mxCell id="NFo6-rs8NH-0p_eXUnrb-22" value="\(v_1\)" style="ellipse;whiteSpace=wrap;html=1;aspect=fixed;" parent="1" vertex="1">
          <mxGeometry x="400" y="642" width="25" height="25" as="geometry" />
        </mxCell>
        <mxCell id="NFo6-rs8NH-0p_eXUnrb-23" value="\(v_5\)" style="ellipse;whiteSpace=wrap;html=1;aspect=fixed;" parent="1" vertex="1">
          <mxGeometry x="462.5" y="642" width="25" height="25" as="geometry" />
        </mxCell>
        <mxCell id="NFo6-rs8NH-0p_eXUnrb-24" value="\(v_2\)" style="ellipse;whiteSpace=wrap;html=1;aspect=fixed;" parent="1" vertex="1">
          <mxGeometry x="422.5" y="690" width="25" height="25" as="geometry" />
        </mxCell>
        <mxCell id="NFo6-rs8NH-0p_eXUnrb-25" value="\(v_3\)" style="ellipse;whiteSpace=wrap;html=1;aspect=fixed;" parent="1" vertex="1">
          <mxGeometry x="462.5" y="545" width="25" height="25" as="geometry" />
        </mxCell>
        <mxCell id="NFo6-rs8NH-0p_eXUnrb-26" value="\(v_6\)" style="ellipse;whiteSpace=wrap;html=1;aspect=fixed;" parent="1" vertex="1">
          <mxGeometry x="520" y="642" width="25" height="25" as="geometry" />
        </mxCell>
        <mxCell id="NFo6-rs8NH-0p_eXUnrb-27" value="" style="endArrow=classic;html=1;rounded=0;" parent="1" source="NFo6-rs8NH-0p_eXUnrb-22" target="NFo6-rs8NH-0p_eXUnrb-24" edge="1">
          <mxGeometry width="50" height="50" relative="1" as="geometry">
            <mxPoint x="370" y="700" as="sourcePoint" />
            <mxPoint x="420" y="650" as="targetPoint" />
          </mxGeometry>
        </mxCell>
        <mxCell id="NFo6-rs8NH-0p_eXUnrb-28" value="" style="endArrow=classic;html=1;rounded=0;" parent="1" source="NFo6-rs8NH-0p_eXUnrb-22" target="NFo6-rs8NH-0p_eXUnrb-25" edge="1">
          <mxGeometry width="50" height="50" relative="1" as="geometry">
            <mxPoint x="550" y="625" as="sourcePoint" />
            <mxPoint x="600" y="575" as="targetPoint" />
          </mxGeometry>
        </mxCell>
        <mxCell id="FMkChKcIqRu3D_dPNmaS-2" value="" style="endArrow=classic;html=1;rounded=0;" parent="1" source="NFo6-rs8NH-0p_eXUnrb-22" target="NFo6-rs8NH-0p_eXUnrb-23" edge="1">
          <mxGeometry width="50" height="50" relative="1" as="geometry">
            <mxPoint x="440" y="570" as="sourcePoint" />
            <mxPoint x="490" y="520" as="targetPoint" />
          </mxGeometry>
        </mxCell>
        <mxCell id="FMkChKcIqRu3D_dPNmaS-3" value="" style="endArrow=classic;html=1;rounded=0;" parent="1" source="NFo6-rs8NH-0p_eXUnrb-23" target="NFo6-rs8NH-0p_eXUnrb-26" edge="1">
          <mxGeometry width="50" height="50" relative="1" as="geometry">
            <mxPoint x="516" y="607" as="sourcePoint" />
            <mxPoint x="574" y="668" as="targetPoint" />
          </mxGeometry>
        </mxCell>
        <mxCell id="FMkChKcIqRu3D_dPNmaS-4" value="" style="endArrow=classic;html=1;rounded=0;" parent="1" source="NFo6-rs8NH-0p_eXUnrb-24" target="NFo6-rs8NH-0p_eXUnrb-23" edge="1">
          <mxGeometry width="50" height="50" relative="1" as="geometry">
            <mxPoint x="526" y="617" as="sourcePoint" />
            <mxPoint x="584" y="678" as="targetPoint" />
          </mxGeometry>
        </mxCell>
        <mxCell id="FMkChKcIqRu3D_dPNmaS-5" value="" style="endArrow=classic;html=1;rounded=0;" parent="1" source="NFo6-rs8NH-0p_eXUnrb-25" target="NFo6-rs8NH-0p_eXUnrb-26" edge="1">
          <mxGeometry width="50" height="50" relative="1" as="geometry">
            <mxPoint x="536" y="627" as="sourcePoint" />
            <mxPoint x="594" y="688" as="targetPoint" />
          </mxGeometry>
        </mxCell>
        <mxCell id="FMkChKcIqRu3D_dPNmaS-6" value="&lt;div&gt;\(v_4\)&lt;/div&gt;" style="ellipse;whiteSpace=wrap;html=1;aspect=fixed;" parent="1" vertex="1">
          <mxGeometry x="462.5" y="595" width="25" height="25" as="geometry" />
        </mxCell>
        <mxCell id="FMkChKcIqRu3D_dPNmaS-7" value="" style="endArrow=classic;html=1;rounded=0;" parent="1" source="NFo6-rs8NH-0p_eXUnrb-22" target="FMkChKcIqRu3D_dPNmaS-6" edge="1">
          <mxGeometry width="50" height="50" relative="1" as="geometry">
            <mxPoint x="430" y="655" as="sourcePoint" />
            <mxPoint x="477" y="592" as="targetPoint" />
          </mxGeometry>
        </mxCell>
        <mxCell id="FMkChKcIqRu3D_dPNmaS-9" value="" style="endArrow=classic;html=1;rounded=0;" parent="1" source="FMkChKcIqRu3D_dPNmaS-6" target="NFo6-rs8NH-0p_eXUnrb-26" edge="1">
          <mxGeometry width="50" height="50" relative="1" as="geometry">
            <mxPoint x="440" y="665" as="sourcePoint" />
            <mxPoint x="487" y="602" as="targetPoint" />
          </mxGeometry>
        </mxCell>
        <mxCell id="FMkChKcIqRu3D_dPNmaS-10" value="&lt;font style=&quot;font-size: 10px;&quot;&gt;\(v_{6}\)&lt;/font&gt;" style="rounded=0;whiteSpace=wrap;html=1;" parent="1" vertex="1">
          <mxGeometry x="480" y="310" width="80" height="20" as="geometry" />
        </mxCell>
        <mxCell id="FMkChKcIqRu3D_dPNmaS-11" value="&lt;font style=&quot;font-size: 10px;&quot;&gt;\(v_{6}\)&lt;/font&gt;" style="rounded=0;whiteSpace=wrap;html=1;" parent="1" vertex="1">
          <mxGeometry x="480" y="441" width="80" height="20" as="geometry" />
        </mxCell>
        <mxCell id="FMkChKcIqRu3D_dPNmaS-12" value="&lt;font style=&quot;font-size: 10px;&quot;&gt;\(v_{4}\)&lt;/font&gt;" style="rounded=0;whiteSpace=wrap;html=1;" parent="1" vertex="1">
          <mxGeometry x="360" y="421" width="90" height="20" as="geometry" />
        </mxCell>
        <mxCell id="FMkChKcIqRu3D_dPNmaS-13" value="12" style="text;html=1;align=center;verticalAlign=middle;resizable=0;points=[];autosize=1;strokeColor=none;fillColor=none;" parent="1" vertex="1">
          <mxGeometry x="390" y="660" width="40" height="30" as="geometry" />
        </mxCell>
        <mxCell id="FMkChKcIqRu3D_dPNmaS-14" value="6" style="text;html=1;align=center;verticalAlign=middle;resizable=0;points=[];autosize=1;strokeColor=none;fillColor=none;" parent="1" vertex="1">
          <mxGeometry x="420" y="710" width="30" height="30" as="geometry" />
        </mxCell>
        <mxCell id="FMkChKcIqRu3D_dPNmaS-15" value="3" style="text;html=1;align=center;verticalAlign=middle;resizable=0;points=[];autosize=1;strokeColor=none;fillColor=none;" parent="1" vertex="1">
          <mxGeometry x="460" y="565" width="30" height="30" as="geometry" />
        </mxCell>
        <mxCell id="FMkChKcIqRu3D_dPNmaS-16" value="9" style="text;html=1;align=center;verticalAlign=middle;resizable=0;points=[];autosize=1;strokeColor=none;fillColor=none;" parent="1" vertex="1">
          <mxGeometry x="460" y="612" width="30" height="30" as="geometry" />
        </mxCell>
        <mxCell id="FMkChKcIqRu3D_dPNmaS-17" value="6" style="text;html=1;align=center;verticalAlign=middle;resizable=0;points=[];autosize=1;strokeColor=none;fillColor=none;" parent="1" vertex="1">
          <mxGeometry x="460" y="660" width="30" height="30" as="geometry" />
        </mxCell>
        <mxCell id="FMkChKcIqRu3D_dPNmaS-18" value="8" style="text;html=1;align=center;verticalAlign=middle;resizable=0;points=[];autosize=1;strokeColor=none;fillColor=none;" parent="1" vertex="1">
          <mxGeometry x="517.5" y="660" width="30" height="30" as="geometry" />
        </mxCell>
      </root>
    </mxGraphModel>
  </diagram>
</mxfile>
